<svg xmlns="http://www.w3.org/2000/svg" viewBox="0 0 64 64" width="64" height="64">
  <defs>
    <linearGradient id="bg" x1="0%" y1="0%" x2="100%" y2="100%">
      <stop offset="0%" style="stop-color:#10B981"/>
      <stop offset="100%" style="stop-color:#059669"/>
    </linearGradient>
    <linearGradient id="gold" x1="0%" y1="0%" x2="0%" y2="100%">
      <stop offset="0%" style="stop-color:#FCD34D"/>
      <stop offset="100%" style="stop-color:#D97706"/>
    </linearGradient>
  </defs>
  <circle cx="32" cy="32" r="30" fill="url(#bg)"/>

  <!-- asas de la copa -->
  <path d="M20,20 Q11,20 12,29 Q13,37 22,37" fill="none" stroke="url(#gold)" stroke-width="3" stroke-linecap="round"/>
  <path d="M44,20 Q53,20 52,29 Q51,37 42,37" fill="none" stroke="url(#gold)" stroke-width="3" stroke-linecap="round"/>

  <!-- copa -->
  <path d="M21,17 H43 L41,32 Q40,41 32,41 Q24,41 23,32 Z" fill="url(#gold)"/>
  <rect x="19.5" y="15" width="25" height="4" rx="1.5" fill="#FCD34D"/>

  <!-- pie y base -->
  <rect x="29.5" y="41" width="5" height="6" fill="url(#gold)"/>
  <path d="M23,48 H41 L39,53 H25 Z" fill="url(#gold)"/>
  <rect x="21" y="53" width="22" height="4" rx="1.5" fill="#D97706"/>

  <!-- estrella -->
  <path d="M32,22 L33.3,25.4 L37,25.6 L34.1,27.9 L35.1,31.4 L32,29.3 L28.9,31.4 L29.9,27.9 L27,25.6 L30.7,25.4 Z" fill="#1E2535"/>
</svg>
