<svg xmlns="http://www.w3.org/2000/svg" viewBox="0 0 100 100" width="100" height="100">
  <clipPath id="a08"><circle cx="50" cy="50" r="50"/></clipPath>
  <clipPath id="s08"><path d="M50 14 84 26v26c0 22-16 34-34 40-18-6-34-18-34-40V26Z"/></clipPath>
  <g clip-path="url(#a08)">
    <rect width="100" height="100" fill="#0B0F1A"/>
    <g clip-path="url(#s08)">
      <rect x="16" y="14" width="68" height="78" fill="#6EC1E4"/>
      <path d="M16 62h68v30H16Z" fill="#fff"/>
    </g>
    <path d="M50 26l4.5 9.2 10.2 1.5-7.4 7.2 1.8 10.1L50 49.2l-9.1 4.8 1.8-10.1-7.4-7.2 10.2-1.5Z" fill="#fff"/>
    <path d="M50 14 84 26v26c0 22-16 34-34 40-18-6-34-18-34-40V26Z" fill="none" stroke="#F8FAFC" stroke-width="3"/>
  </g>
</svg>
