<svg xmlns="http://www.w3.org/2000/svg" viewBox="0 0 100 100" width="100" height="100">
  <circle cx="50" cy="50" r="50" fill="#10B981"/>
  <circle cx="50" cy="50" r="34" fill="#fff"/>
  <g fill="#111827">
    <path d="M50 34l11 8-4.2 13H43.2L39 42Z"/>
    <path d="M50 18.5a31.5 31.5 0 0 1 12 2.4l-2 8.6-10-7.3-10 7.3-2-8.6a31.5 31.5 0 0 1 12-2.4Z"/>
    <path d="M20.5 43.5a31.5 31.5 0 0 1 7.6-11.4l7.2 5.4-4 12.6-9.2.4Z"/>
    <path d="M79.5 43.5l-1.6 7-9.2-.4-4-12.6 7.2-5.4a31.5 31.5 0 0 1 7.6 11.4Z"/>
    <path d="M34.5 74.6l-6.8 5.6a31.5 31.5 0 0 1-7-11.6l8.6-3.4 9.4 6.6Z"/>
    <path d="M79.3 68.6a31.5 31.5 0 0 1-7 11.6l-6.8-5.6-4.2-2.8 9.4-6.6Z"/>
  </g>
  <circle cx="50" cy="50" r="34" fill="none" stroke="#0B0F1A" stroke-width="3"/>
</svg>
