<svg xmlns="http://www.w3.org/2000/svg" viewBox="0 0 100 100" width="100" height="100">
  <clipPath id="a17"><circle cx="50" cy="50" r="50"/></clipPath>
  <g clip-path="url(#a17)">
    <rect width="100" height="100" fill="#F59E0B"/>
    <path d="M50 88c-14 0-24 6-28 12h56c-4-6-14-12-28-12Z" fill="#1E293B"/>
    <circle cx="50" cy="52" r="30" fill="#F2C49B"/>
    <path d="M20 48a30 30 0 0 1 60 0c0-4-6-8-8-14-8 6-30 8-44 2-6 3-8 8-8 12Z" fill="#3F2A1D"/>
    <g fill="#1E293B">
      <circle cx="39" cy="50" r="3.4"/><circle cx="61" cy="50" r="3.4"/>
    </g>
    <path d="M34 66c4-5 10-5 12-1h8c2-4 8-4 12 1-4 5-10 6-16 4-6 2-12 1-16-4Z" fill="#3F2A1D"/>
    <path d="M42 78c4 3 12 3 16 0" stroke="#B4785A" stroke-width="2.5" stroke-linecap="round" fill="none"/>
  </g>
</svg>
