<svg xmlns="http://www.w3.org/2000/svg" viewBox="0 0 100 100" width="100" height="100">
  <clipPath id="a19"><circle cx="50" cy="50" r="50"/></clipPath>
  <g clip-path="url(#a19)">
    <rect width="100" height="100" fill="#94A3B8"/>
    <path d="M50 84c-16 0-28 7-32 16h64c-4-9-16-16-32-16Z" fill="#F8FAFC"/>
    <path d="M42 82 50 92 58 82l-4-4h-8Z" fill="#0F172A"/>
    <path d="M46 78h8l-2 4h-4Z" fill="#DC2626"/>
    <path d="M50 82c-3 4-4 10-3 18h6c1-8 0-14-3-18Z" fill="#DC2626"/>
    <circle cx="50" cy="50" r="30" fill="#E8B78E"/>
    <path d="M22 46c2-16 13-24 28-24s26 8 28 24c-3-2-6-8-8-12-10 8-30 8-40 2-4 3-6 7-8 10Z" fill="#1F2937"/>
    <g fill="#1E293B">
      <circle cx="39" cy="50" r="3.4"/><circle cx="61" cy="50" r="3.4"/>
    </g>
    <path d="M42 66c4 4 12 4 16 0" stroke="#B4785A" stroke-width="3" stroke-linecap="round" fill="none"/>
  </g>
</svg>
