<svg xmlns="http://www.w3.org/2000/svg" viewBox="0 0 100 100" width="100" height="100">
  <clipPath id="a20"><circle cx="50" cy="50" r="50"/></clipPath>
  <g clip-path="url(#a20)">
    <rect width="100" height="100" fill="#10B981"/>
    <path d="M50 88c-14 0-24 6-28 12h56c-4-6-14-12-28-12Z" fill="#1E293B"/>
    <circle cx="50" cy="54" r="30" fill="#C68642"/>
    <path d="M22 46a28 28 0 0 1 56 0Z" fill="#1D4ED8"/>
    <path d="M78 46h16a6 6 0 0 0-6-6H72Z" fill="#1E40AF"/>
    <rect x="21" y="42" width="58" height="8" rx="4" fill="#1E40AF"/>
    <g fill="#0F172A">
      <rect x="27" y="52" width="20" height="13" rx="4"/>
      <rect x="53" y="52" width="20" height="13" rx="4"/>
      <rect x="45" y="56" width="10" height="3"/>
    </g>
    <path d="M40 76c4 4 16 4 20 0" stroke="#8A5A2B" stroke-width="3" stroke-linecap="round" fill="none"/>
  </g>
</svg>
